<?xml version="1.0" encoding="utf-8"?>
<!-- Generator: Adobe Illustrator 19.0.0, SVG Export Plug-In . SVG Version: 6.00 Build 0)  -->
<svg version="1.1" id="Layer_1" xmlns="http://www.w3.org/2000/svg" xmlns:xlink="http://www.w3.org/1999/xlink" x="0px" y="0px"
	 viewBox="-291 383 28 28" style="enable-background:new -291 383 28 28;" xml:space="preserve">
<style type="text/css">
	.st0{fill:#FFFFFF;}
</style>
<path class="st0" d="M-264.9,391.4c0,0.4-0.1,0.8-0.4,1.1l-11.3,11.3l-2.1,2.1c-0.3,0.3-0.6,0.4-1.1,0.4s-0.8-0.1-1.1-0.4l-2.1-2.1
	l-5.7-5.7c-0.3-0.3-0.4-0.6-0.4-1.1s0.1-0.8,0.4-1.1l2.1-2.1c0.3-0.3,0.6-0.4,1.1-0.4s0.8,0.1,1.1,0.4l4.6,4.6l10.2-10.3
	c0.3-0.3,0.6-0.4,1.1-0.4s0.8,0.1,1.1,0.4l2.1,2.1C-265,390.7-264.9,391-264.9,391.4z"/>
</svg>
